<?xml version="1.0" standalone="no"?>
<!DOCTYPE svg PUBLIC "-//W3C//DTD SVG 20010904//EN"
 "http://www.w3.org/TR/2001/REC-SVG-20010904/DTD/svg10.dtd">
<svg version="1.0" xmlns="http://www.w3.org/2000/svg"
 width="1192.000000pt" height="298.000000pt" viewBox="0 0 1192.000000 298.000000"
 preserveAspectRatio="xMidYMid meet">

<g transform="translate(0.000000,298.000000) scale(0.100000,-0.100000)"
fill="#000000" stroke="none">
<path d="M4936 2894 c-64 -53 -124 -138 -157 -222 -19 -48 -23 -77 -24 -177
l0 -120 41 -85 c44 -92 114 -176 196 -237 l51 -37 63 66 63 67 -14 -45 c-28
-94 -92 -172 -186 -227 -115 -67 -307 -120 -484 -135 l-90 -7 -3 -75 c-3 -75
-15 -98 -39 -78 -8 7 -13 35 -13 79 l0 69 -95 0 -95 0 0 -69 c0 -72 -13 -97
-43 -85 -12 4 -18 27 -23 85 -6 78 -7 79 -34 79 -15 0 -55 3 -89 7 l-62 6 2
-67 c2 -69 -8 -93 -35 -83 -12 5 -16 21 -16 69 0 35 -4 69 -9 77 -7 11 -120
38 -168 40 -9 1 -13 -20 -13 -74 0 -58 -3 -77 -15 -81 -30 -12 -44 15 -47 94
l-3 76 -80 18 c-44 9 -86 18 -92 18 -9 0 -13 -21 -13 -74 0 -59 -3 -75 -16
-80 -31 -12 -44 13 -44 84 0 42 -5 71 -12 78 -7 5 -40 15 -73 22 -33 6 -68 14
-77 16 -15 4 -17 -5 -20 -68 -3 -70 -4 -73 -28 -73 -24 0 -25 3 -31 78 -4 43
-8 79 -10 81 -2 1 -45 11 -96 22 l-92 20 -3 -75 c-3 -74 -4 -76 -28 -76 -24 0
-25 3 -33 82 l-9 82 -101 24 -102 23 -3 -83 c-2 -69 -6 -84 -22 -93 -35 -19
-50 12 -50 106 0 46 -3 84 -7 84 -5 0 -52 9 -106 20 -55 11 -105 20 -113 20
-12 0 -15 -19 -13 -104 2 -123 -4 -140 -41 -116 -11 7 -16 37 -20 122 l-5 113
-115 17 c-161 25 -517 64 -765 84 -292 25 -738 25 -895 1 -224 -35 -339 -78
-389 -147 -30 -42 -46 -98 -36 -129 5 -18 8 -18 38 -3 42 21 181 27 277 13
167 -26 351 -105 545 -233 106 -70 198 -142 410 -323 179 -152 259 -215 377
-296 124 -86 287 -183 342 -204 33 -13 45 -24 59 -59 41 -100 179 -289 297
-406 167 -168 314 -259 519 -324 234 -74 515 -75 716 -3 l40 14 -57 12 c-116
25 -300 131 -385 224 -39 42 -170 214 -188 247 -4 8 12 -3 36 -26 60 -55 105
-89 233 -174 123 -81 114 -80 275 -39 302 78 591 207 841 377 377 257 660 593
814 968 24 60 52 139 61 174 l16 65 167 0 c190 1 289 17 412 67 133 55 221
126 289 233 28 44 78 181 69 190 -2 2 -27 -7 -54 -21 -96 -48 -208 -50 -423
-9 -100 20 -216 19 -274 -1 -26 -9 -69 -36 -97 -61 -45 -40 -49 -42 -40 -18 5
14 10 45 10 67 0 101 -46 168 -185 268 -147 106 -202 186 -193 282 2 21 1 38
-3 38 -4 0 -32 -21 -63 -46z m-1886 -1199 c52 -8 120 -23 150 -33 182 -63 358
-218 445 -392 52 -103 66 -160 90 -353 6 -48 6 -48 38 -41 47 10 180 53 196
63 8 5 28 73 46 161 30 137 42 169 67 170 18 0 39 -53 66 -162 l28 -117 26 33
c36 45 85 66 151 66 49 0 58 3 81 31 29 34 33 46 40 143 6 73 17 96 47 96 26
0 46 -35 58 -104 6 -33 11 -62 11 -64 0 -18 247 147 319 213 67 60 33 11 -58
-86 -84 -90 -244 -209 -281 -209 -11 0 -35 -16 -53 -37 -41 -47 -99 -73 -165
-73 -42 0 -58 -5 -77 -24 -24 -24 -55 -110 -55 -152 0 -31 -31 -67 -52 -59
-21 8 -34 42 -62 152 l-23 88 -16 -56 c-10 -33 -24 -60 -34 -64 -145 -59 -369
-115 -553 -139 -421 -54 -789 -13 -1127 126 l-73 30 0 49 c0 28 7 82 16 120
13 59 19 69 32 63 84 -35 146 -54 155 -45 11 11 -81 57 -134 68 l-29 5 38 72
c67 128 218 249 372 297 92 29 245 35 340 15 146 -31 292 -119 380 -229 80
-101 140 -275 140 -409 l0 -47 -90 6 c-58 4 -90 2 -90 -4 0 -13 72 -23 166
-23 l74 0 0 68 c-1 221 -107 441 -270 563 -161 121 -363 176 -545 150 -216
-32 -391 -137 -499 -299 -69 -105 -115 -236 -116 -329 0 -51 -11 -54 -60 -14
l-34 29 17 78 c10 48 37 120 68 183 44 89 65 118 138 191 134 136 293 216 471
239 98 13 126 12 230 -4z m-1349 -21 c15 -7 34 -30 44 -51 16 -33 16 -41 4
-77 -16 -47 -67 -86 -113 -86 -77 0 -138 79 -117 150 24 79 99 106 182 64z"/>
<path d="M2922 1541 c-20 -12 -12 -146 8 -146 12 0 16 16 18 69 3 71 -4 91
-26 77z"/>
<path d="M3226 1393 c-57 -91 -27 -96 34 -5 34 51 36 62 16 62 -8 0 -30 -25
-50 -57z"/>
<path d="M2561 1418 c24 -47 81 -110 91 -100 14 14 -60 122 -84 122 -16 0 -17
-3 -7 -22z"/>
<path d="M3355 1156 c-55 -27 -153 -78 -217 -112 -76 -40 -121 -58 -130 -53
-7 5 -33 9 -56 9 -37 0 -50 -6 -78 -34 -38 -38 -44 -77 -19 -126 21 -40 53
-60 98 -60 72 0 117 42 117 109 0 16 6 31 13 34 19 7 393 287 381 286 -5 -1
-54 -25 -109 -53z m-367 -232 c27 -19 28 -45 2 -69 -16 -15 -26 -17 -48 -9
-36 13 -42 56 -10 78 28 20 28 20 56 0z"/>
<path d="M3446 1156 c-54 -27 -73 -42 -63 -52 8 -9 137 52 137 65 0 17 -20 13
-74 -13z"/>
<path d="M110 1782 c-16 -17 -30 -40 -30 -51 0 -31 48 -157 97 -255 353 -704
1180 -1203 2117 -1276 76 -6 140 -10 141 -8 2 2 -20 22 -50 45 -46 36 -64 43
-130 52 -187 26 -440 91 -615 158 -115 43 -355 161 -465 228 -417 253 -750
628 -904 1016 -25 63 -62 104 -103 114 -22 6 -33 1 -58 -23z"/>
<path d="M450 1645 c206 -373 519 -696 885 -914 258 -153 553 -273 731 -296
27 -3 60 -8 74 -11 l25 -6 -23 25 c-36 38 -108 72 -225 107 -309 91 -645 267
-878 460 -185 153 -395 380 -531 573 -87 126 -101 139 -58 62z"/>
<path d="M715 1605 c252 -358 624 -671 1017 -854 103 -49 227 -91 265 -91 l28
1 -35 30 c-41 36 -90 62 -252 134 -186 83 -432 237 -593 371 -92 76 -276 254
-384 369 -40 44 -61 62 -46 40z"/>
<path d="M11640 1269 c-238 -36 -340 -71 -418 -143 -96 -89 -132 -203 -132
-421 0 -78 5 -168 11 -200 14 -78 59 -164 105 -205 84 -73 224 -108 364 -91
237 30 339 150 328 389 -3 80 -9 106 -30 147 -57 108 -154 166 -290 173 -103
5 -172 -13 -230 -59 -35 -27 -38 -28 -38 -10 0 54 24 125 53 158 49 56 102 74
295 99 96 12 176 24 178 27 2 2 -1 38 -8 80 -14 90 4 85 -188 56z m-33 -515
c46 -34 66 -79 71 -158 6 -95 -16 -174 -58 -210 -71 -60 -174 -59 -241 1 -49
45 -62 88 -58 195 3 71 8 91 30 125 38 56 79 74 161 71 49 -3 75 -9 95 -24z"/>
<path d="M5650 745 l0 -526 138 3 137 3 0 243 c0 133 1 242 2 242 9 0 278
-304 378 -427 l50 -62 168 0 c92 -1 167 2 167 5 0 8 -160 190 -343 392 l-139
152 134 143 c193 206 318 343 318 351 0 3 -71 6 -157 5 l-158 -1 -205 -231
-205 -231 -3 232 -2 232 -140 0 -140 0 0 -525z"/>
<path d="M6790 745 l0 -525 133 1 132 1 238 319 c131 175 243 319 248 319 7 0
9 -110 7 -317 l-3 -318 138 -3 137 -3 0 526 0 525 -132 -1 -133 -1 -218 -291
c-120 -161 -231 -308 -247 -327 l-29 -35 -1 328 0 327 -135 0 -135 0 0 -525z"/>
<path d="M7940 1165 l0 -105 163 -2 162 -3 3 -418 2 -417 135 0 135 0 0 420 0
420 170 0 170 0 0 105 0 105 -470 0 -470 0 0 -105z"/>
<path d="M10510 920 c-83 -17 -170 -42 -170 -49 0 -4 5 -33 11 -65 9 -44 15
-55 28 -52 119 34 265 40 318 12 38 -19 63 -62 63 -106 l0 -30 -102 0 c-232
-1 -349 -58 -377 -183 -32 -139 55 -229 229 -235 95 -4 175 18 230 65 l30 25
0 -41 0 -41 105 0 105 0 0 233 c0 277 -7 315 -74 382 -59 59 -133 85 -255 90
-53 2 -116 0 -141 -5z m258 -451 c3 -54 2 -57 -37 -92 -44 -40 -88 -52 -159
-44 -31 3 -52 12 -64 27 -18 22 -24 74 -12 105 14 36 108 64 209 62 l60 -2 3
-56z"/>
<path d="M9548 748 c-4 -138 -10 -186 -26 -238 -30 -94 -84 -140 -161 -140
l-41 0 0 -81 0 -82 73 7 c106 10 173 34 227 83 79 71 126 209 132 388 l3 80
98 3 97 3 0 -276 0 -275 110 0 110 0 0 350 0 350 -309 0 -308 0 -5 -172z"/>
<path d="M8860 630 l0 -80 220 0 220 0 0 80 0 80 -220 0 -220 0 0 -80z"/>
</g>
</svg>
